<svg width="512" height="512" viewBox="0 0 512 512" fill="none" xmlns="http://www.w3.org/2000/svg">
<path fill-rule="evenodd" clip-rule="evenodd" d="M351.226 215.116C357.849 213.342 364.916 215.236 369.765 220.084L408.378 258.698C413.227 263.546 415.121 270.613 413.346 277.236L401.506 321.42L411.447 331.362C414.445 334.36 414.445 339.221 411.447 342.219L397.876 355.79C394.878 358.788 390.017 358.788 387.019 355.79L377.077 345.849L332.893 357.689C326.27 359.464 319.203 357.57 314.355 352.722L275.741 314.108C270.893 309.259 268.999 302.192 270.773 295.569L282.612 251.384L273.021 241.793C270.023 238.795 270.023 233.933 273.021 230.935L286.592 217.364C289.59 214.366 294.451 214.366 297.45 217.364L307.041 226.955L351.226 215.116ZM305.599 274.37C304.351 278.155 303.674 282.2 303.674 286.402C303.674 307.602 320.86 324.787 342.059 324.787C346.262 324.787 350.307 324.111 354.091 322.863L305.599 274.37ZM342.059 248.017C337.856 248.017 333.811 248.693 330.027 249.941L378.52 298.434C379.768 294.65 380.444 290.605 380.444 286.402C380.444 265.203 363.259 248.017 342.059 248.017Z" fill="white"/>
<path d="M112.123 358.336C104.323 358.336 98 352.013 98 344.213V154H177.097C202.316 154 221.613 158.509 234.987 167.526C248.36 176.352 255.047 190.358 255.047 209.545C255.047 217.987 253.328 225.374 249.889 231.705C246.45 237.845 241.387 242.737 234.7 246.383C228.204 250.028 220.275 252.235 210.914 253.002V252.426C227.917 253.578 240.909 258.566 249.889 267.392C259.059 276.026 263.645 287.538 263.645 301.927C263.645 320.922 256.958 335.12 243.584 344.521C230.401 353.731 211.487 358.336 186.841 358.336H112.123ZM141.561 322.649H184.835C195.343 322.649 203.749 320.538 210.054 316.317C216.55 311.904 219.798 305.381 219.798 296.747C219.798 288.113 216.55 281.59 210.054 277.177C203.749 272.572 195.343 270.27 184.835 270.27H141.561V322.649ZM141.561 238.612H175.95C186.65 238.612 195.152 236.502 201.456 232.281C207.952 228.06 211.2 222.016 211.2 214.149C211.2 205.707 208.048 199.568 201.743 195.731C195.629 191.701 187.032 189.687 175.95 189.687H141.561V238.612Z" fill="white"/>
</svg>
