<svg width="512" height="512" viewBox="0 0 512 512" fill="none" xmlns="http://www.w3.org/2000/svg">
<g clip-path="url(#clip0_88_474)">
<rect width="512" height="512" rx="123" fill="white"/>
<path fill-rule="evenodd" clip-rule="evenodd" d="M276.747 90.5147C292.078 86.4068 308.437 90.7905 319.66 102.014L409.043 191.397C420.267 202.62 424.65 218.979 420.542 234.31L393.135 336.588L416.146 359.599C423.086 366.539 423.086 377.792 416.146 384.732L384.732 416.147C377.792 423.086 366.539 423.086 359.599 416.147L336.587 393.135L234.31 420.542C218.979 424.65 202.62 420.267 191.397 409.043L102.014 319.66C90.7905 308.437 86.4068 292.078 90.5146 276.747L117.919 174.466L95.7175 152.265C88.7776 145.325 88.7776 134.072 95.7175 127.132L127.132 95.7175C134.072 88.7776 145.325 88.7776 152.265 95.7175L174.466 117.919L276.747 90.5147ZM171.129 227.676C168.239 236.436 166.674 245.799 166.674 255.528C166.674 304.6 206.455 344.381 255.528 344.381C265.256 344.381 274.619 342.816 283.379 339.927L171.129 227.676ZM255.528 166.674C245.799 166.674 236.435 168.237 227.674 171.127L339.926 283.379C342.816 274.619 344.381 265.256 344.381 255.528C344.381 206.455 304.6 166.674 255.528 166.674Z" fill="black"/>
</g>
<defs>
<clipPath id="clip0_88_474">
<rect width="512" height="512" fill="white"/>
</clipPath>
</defs>
</svg>
